<svg width="23" height="11" viewBox="0 0 23 11" fill="none" xmlns="http://www.w3.org/2000/svg">
<path id="Icon awesome-long-arrow-alt-right" d="M16.3029 3.50195H1.2189C1.05977 3.50195 0.907154 3.56516 0.794632 3.67768C0.682111 3.79021 0.618896 3.94282 0.618896 4.10195L0.618896 6.90195C0.618896 6.98074 0.634416 7.05876 0.664569 7.13156C0.694722 7.20435 0.738917 7.2705 0.794632 7.32621C0.850348 7.38193 0.916491 7.42612 0.989286 7.45628C1.06208 7.48643 1.1401 7.50195 1.2189 7.50195H16.3029V9.80195C16.3033 10.0389 16.3739 10.2705 16.5057 10.4674C16.6375 10.6643 16.8247 10.8178 17.0436 10.9085C17.2626 10.9992 17.5035 11.0231 17.7359 10.9771C17.9684 10.931 18.182 10.8172 18.3499 10.6499L22.6499 6.34995C22.7618 6.23846 22.8505 6.10599 22.9111 5.96013C22.9717 5.81427 23.0028 5.65789 23.0028 5.49995C23.0028 5.34201 22.9717 5.18563 22.9111 5.03977C22.8505 4.8939 22.7618 4.76143 22.6499 4.64995L18.3499 0.349949C18.182 0.182681 17.9684 0.0688617 17.7359 0.0228433C17.5035 -0.023175 17.2626 0.000667259 17.0436 0.0913648C16.8247 0.182062 16.6375 0.335554 16.5057 0.532485C16.3739 0.729416 16.3033 0.96097 16.3029 1.19795V3.50195Z" fill="white"/>
</svg>
