<svg width="150" height="35" viewBox="0 0 150 35" fill="none" xmlns="http://www.w3.org/2000/svg">
<g id="Group 3" opacity="0.55">
<path id="Path 25" opacity="0.55" d="M43.8511 10.3339H47.6251V25.5939H43.8511V10.3339ZM49.1221 19.8339C49.1221 16.0599 51.4371 13.8079 55.0101 13.8079C58.5831 13.8079 60.8981 16.0599 60.8981 19.8339C60.8981 23.6079 58.6341 25.8719 55.0101 25.8719C51.3861 25.8719 49.1221 23.6689 49.1221 19.8329V19.8339ZM57.1101 19.8339C57.1101 17.7579 56.2921 16.5339 55.0101 16.5339C53.7281 16.5339 52.9221 17.7919 52.9221 19.8339C52.9221 21.8759 53.7151 23.1049 55.0101 23.1049C56.3051 23.1049 57.1101 21.9479 57.1101 19.8469V19.8339ZM62.3181 26.3339H65.9411C66.1132 26.7179 66.4048 27.0359 66.7725 27.2404C67.1401 27.445 67.5641 27.5251 67.9811 27.4689C69.4151 27.4689 70.1701 26.6889 70.1701 25.5569V23.4429H70.0951C69.7944 24.0905 69.3065 24.6332 68.6944 25.0009C68.0823 25.3687 67.3741 25.5445 66.6611 25.5059C63.9061 25.5059 62.0821 23.4059 62.0821 19.7949C62.0821 16.1839 63.8181 13.9069 66.7121 13.9069C67.447 13.8786 68.173 14.0755 68.7929 14.4712C69.4129 14.8669 69.8972 15.4424 70.1811 16.1209V14.0209H73.9551V25.4679C73.9551 28.2229 71.5271 29.9339 67.9421 29.9339C64.6081 29.9339 62.5331 28.4339 62.3191 26.3489L62.3181 26.3339ZM70.1811 19.8199C70.1811 17.9829 69.3381 16.8259 68.0051 16.8259C66.6721 16.8259 65.8541 17.9709 65.8541 19.8199C65.8541 21.6689 66.6591 22.7129 68.0051 22.7129C69.3511 22.7129 70.1811 21.6939 70.1811 19.8329V19.8199ZM75.3811 19.8199C75.3811 16.0459 77.6961 13.7939 81.2691 13.7939C84.8421 13.7939 87.1691 16.0459 87.1691 19.8199C87.1691 23.5939 84.9051 25.8579 81.2691 25.8579C77.6331 25.8579 75.3811 23.6689 75.3811 19.8329V19.8199ZM83.3691 19.8199C83.3691 17.7439 82.5511 16.5199 81.2691 16.5199C79.9871 16.5199 79.2441 17.7909 79.2441 19.8409C79.2441 21.8909 80.0371 23.1119 81.3201 23.1119C82.6031 23.1119 83.3711 21.9419 83.3711 19.8409L83.3691 19.8199ZM88.6021 11.2779C88.5922 10.8967 88.6959 10.5211 88.8998 10.1988C89.1037 9.87657 89.3988 9.62215 89.7475 9.46784C90.0963 9.31353 90.483 9.26629 90.8587 9.33211C91.2343 9.39794 91.582 9.57386 91.8575 9.83755C92.133 10.1013 92.324 10.4408 92.4062 10.8132C92.4884 11.1857 92.4581 11.5741 92.3192 11.9293C92.1804 12.2844 91.9391 12.5904 91.6261 12.8082C91.3131 13.0261 90.9424 13.146 90.5611 13.1529C90.3084 13.1703 90.0549 13.1352 89.8165 13.05C89.578 12.9647 89.3598 12.8311 89.1755 12.6574C88.9911 12.4838 88.8447 12.2739 88.7453 12.041C88.646 11.8081 88.5958 11.5571 88.5981 11.3039L88.6021 11.2779ZM88.6021 14.0459H92.3761V25.5939H88.5991L88.6021 14.0459ZM106.076 19.8199C106.076 23.5939 104.403 25.7449 101.535 25.7449C100.8 25.7917 100.068 25.6117 99.4378 25.2292C98.8079 24.8466 98.3106 24.2801 98.0131 23.6059H97.9381V29.2929H94.1591V14.0199H97.9331V16.0829H98.0081C98.2917 15.3969 98.7799 14.815 99.4062 14.4165C100.033 14.018 100.766 13.8222 101.508 13.8559C104.401 13.9059 106.125 16.0699 106.125 19.8439L106.076 19.8199ZM102.302 19.8199C102.302 17.9829 101.459 16.8129 100.138 16.8129C98.8171 16.8129 97.9741 17.9959 97.9621 19.8199C97.9501 21.6439 98.8171 22.8139 100.138 22.8139C101.459 22.8139 102.302 21.6689 102.302 19.8449V19.8199ZM112.555 13.7819C115.687 13.7819 117.587 15.2659 117.675 17.6439H114.241C114.241 16.8259 113.562 16.3109 112.518 16.3109C111.474 16.3109 111.008 16.7109 111.008 17.3049C111.008 17.8989 111.423 18.0849 112.266 18.2609L114.681 18.7519C116.981 19.2429 117.964 20.1739 117.964 21.9219C117.964 24.3119 115.788 25.8469 112.58 25.8469C109.372 25.8469 107.271 24.3119 107.108 21.9599H110.744C110.857 22.8149 111.537 23.3189 112.644 23.3189C113.751 23.3189 114.254 22.9539 114.254 22.3499C114.254 21.7459 113.902 21.6199 112.996 21.4319L110.82 20.9669C108.568 20.5019 107.386 19.3059 107.386 17.5449C107.411 15.2809 109.437 13.8089 112.556 13.8089L112.555 13.7819ZM130.555 25.5699H126.919V23.4179H126.843C126.643 24.1396 126.202 24.7712 125.593 25.2077C124.985 25.6442 124.245 25.8596 123.497 25.8179C122.924 25.8505 122.35 25.7597 121.815 25.5515C121.279 25.3434 120.795 25.0228 120.394 24.6113C119.994 24.1999 119.686 23.7073 119.492 23.1667C119.298 22.6261 119.222 22.0502 119.27 21.4779V14.0179H123.044V20.6099C123.044 21.9809 123.744 22.7099 124.918 22.7099C125.192 22.7104 125.464 22.6523 125.714 22.5394C125.964 22.4266 126.187 22.2616 126.368 22.0555C126.549 21.8495 126.684 21.6072 126.763 21.3447C126.843 21.0823 126.866 20.8059 126.83 20.5339V14.0199H130.604L130.555 25.5699ZM132.381 14.0199H136.029V16.2469H136.104C136.304 15.5342 136.735 14.9079 137.329 14.4662C137.923 14.0245 138.647 13.7923 139.387 13.8059C140.14 13.7454 140.888 13.9707 141.483 14.437C142.077 14.9032 142.474 15.5761 142.595 16.3219H142.67C142.899 15.5684 143.371 14.9122 144.013 14.4567C144.656 14.0012 145.431 13.7723 146.218 13.8059C146.731 13.7885 147.243 13.8794 147.718 14.0726C148.194 14.2657 148.624 14.5569 148.98 14.9271C149.336 15.2973 149.61 15.7382 149.784 16.2213C149.959 16.7044 150.03 17.2187 149.992 17.7309V25.5939H146.218V18.7379C146.218 17.4799 145.652 16.9009 144.595 16.9009C144.359 16.8987 144.126 16.9472 143.911 17.043C143.695 17.1388 143.503 17.2798 143.347 17.4563C143.19 17.6328 143.074 17.8408 143.005 18.0662C142.936 18.2916 142.916 18.5292 142.947 18.7629V25.5939H139.362V18.6879C139.362 17.5309 138.796 16.9019 137.762 16.9019C137.524 16.9019 137.288 16.9524 137.071 17.0502C136.853 17.148 136.659 17.2907 136.501 17.4691C136.343 17.6474 136.225 17.8573 136.153 18.0848C136.082 18.3123 136.061 18.5523 136.089 18.7889V25.5949H132.315L132.381 14.0199Z" fill="#394149"/>
<path id="Path 26" opacity="0.55" d="M33.2971 11.026C32.657 9.562 31.8096 8.1977 30.7811 6.97495C29.2617 5.11111 27.3647 3.59035 25.215 2.51287C23.0652 1.43538 20.7116 0.825626 18.3091 0.723773C15.9066 0.621919 13.5098 1.03028 11.2766 1.92195C9.04335 2.81362 7.02441 4.16836 5.35276 5.89692C3.6811 7.62548 2.39468 9.68863 1.57824 11.9504C0.7618 14.2122 0.433874 16.6214 0.616066 19.0191C0.798258 21.4169 1.48643 23.7488 2.63525 25.8613C3.78407 27.9737 5.36746 29.8188 7.2811 31.275C8.50791 32.2277 9.86334 33.002 11.3071 33.575C13.3313 34.4044 15.4976 34.8317 17.6851 34.833C22.1996 34.8229 26.5259 33.0238 29.7164 29.8298C32.9068 26.6358 34.7011 22.3074 34.7061 17.793C34.7094 15.4638 34.2296 13.1593 33.2971 11.025V11.026ZM17.6721 4.19295C19.6366 4.19339 21.5773 4.62343 23.3581 5.45295C22.9237 5.64065 22.4669 5.77172 21.9991 5.84295C20.4605 6.06603 19.0353 6.78051 17.936 7.87982C16.8367 8.97914 16.1222 10.4044 15.8991 11.943C15.8014 12.8061 15.4089 13.6092 14.7878 14.2165C14.1668 14.8239 13.3552 15.1985 12.4901 15.277C10.9515 15.5 9.52629 16.2145 8.42697 17.3138C7.32766 18.4131 6.61318 19.8384 6.3901 21.377C6.31463 22.1977 5.9644 22.969 5.3961 23.566C4.41547 21.4943 3.97488 19.2081 4.11533 16.9204C4.25579 14.6326 4.97272 12.4176 6.1994 10.4814C7.42609 8.54518 9.12266 6.95078 11.1312 5.84657C13.1398 4.74236 15.395 4.16422 17.6871 4.16595L17.6721 4.19295ZM7.2681 26.601C7.4191 26.463 7.5681 26.337 7.7211 26.186C8.84022 25.101 9.55863 23.6687 9.7591 22.123C9.84009 21.2539 10.2279 20.4421 10.8531 19.833C11.4548 19.2067 12.2646 18.8219 13.1301 18.751C14.6687 18.5279 16.0939 17.8134 17.1932 16.7141C18.2925 15.6148 19.007 14.1895 19.2301 12.651C19.285 11.7431 19.6749 10.8879 20.3241 10.251C20.9401 9.63742 21.7568 9.26673 22.6241 9.20695C24.0414 9.01259 25.3631 8.38212 26.4061 7.40295C27.5923 8.3876 28.5971 9.57211 29.3751 10.903C29.3271 10.9675 29.2721 11.0265 29.2111 11.079C28.6106 11.7107 27.8019 12.1039 26.9341 12.186C25.3939 12.405 23.9664 13.1182 22.8664 14.2182C21.7663 15.3183 21.0532 16.7457 20.8341 18.286C20.7453 19.1519 20.36 19.9606 19.7432 20.5749C19.1265 21.1893 18.3164 21.5715 17.4501 21.657C15.9068 21.878 14.4759 22.5909 13.3699 23.6898C12.2639 24.7887 11.5419 26.215 11.3111 27.757C11.2434 28.3716 11.0324 28.9617 10.6951 29.48C9.4043 28.7136 8.24822 27.7403 7.2731 26.599L7.2681 26.601ZM17.6681 31.457C16.3916 31.4584 15.1212 31.2807 13.8941 30.929C14.3138 30.1465 14.5867 29.2937 14.6991 28.413C14.7873 27.549 15.1709 26.7419 15.7849 26.1278C16.399 25.5137 17.2061 25.1302 18.0701 25.042C19.6113 24.8218 21.0398 24.1086 22.1419 23.009C23.244 21.9095 23.9604 20.4826 24.1841 18.942C24.2723 18.078 24.6559 17.2709 25.2699 16.6568C25.884 16.0427 26.6911 15.6592 27.5551 15.571C28.7152 15.4202 29.8209 14.9883 30.7761 14.313C31.3056 16.3225 31.3679 18.4266 30.9583 20.464C30.5487 22.5014 29.678 24.418 28.413 26.0668C27.1481 27.7156 25.5224 29.0528 23.6605 29.9761C21.7987 30.8993 19.7502 31.384 17.6721 31.393L17.6681 31.457Z" fill="#394149"/>
</g>
</svg>
