<svg width="100" height="16" viewBox="0 0 100 16" fill="none" xmlns="http://www.w3.org/2000/svg">
<g id="Star">
<g id="Group">
<path id="Icon awesome-star" d="M6.799 1.21622L4.94 4.98722L0.779999 5.59422C0.612163 5.61961 0.454743 5.69133 0.325452 5.80132C0.196162 5.91131 0.100134 6.0552 0.0481736 6.21679C-0.00378683 6.37839 -0.00961696 6.55128 0.0313392 6.71601C0.0722953 6.88074 0.158412 7.03077 0.279999 7.14922L3.29 10.0822L2.578 14.2252C2.54945 14.3926 2.56827 14.5647 2.63231 14.722C2.69636 14.8792 2.8031 15.0155 2.94048 15.1153C3.07785 15.2151 3.2404 15.2746 3.40977 15.2869C3.57914 15.2993 3.74859 15.2641 3.899 15.1852L7.621 13.2292L11.343 15.1852C11.4934 15.2641 11.6629 15.2993 11.8322 15.2869C12.0016 15.2746 12.1641 15.2151 12.3015 15.1153C12.4389 15.0155 12.5456 14.8792 12.6097 14.722C12.6737 14.5647 12.6925 14.3926 12.664 14.2252L11.948 10.0812L14.958 7.14822C15.0796 7.02977 15.1657 6.87974 15.2067 6.71501C15.2476 6.55028 15.2418 6.37739 15.1898 6.21579C15.1379 6.0542 15.0418 5.91031 14.9125 5.80032C14.7833 5.69033 14.6258 5.61861 14.458 5.59322L10.298 4.98622L8.434 1.21622C8.35862 1.06379 8.24212 0.935474 8.09767 0.845757C7.95321 0.756039 7.78655 0.708496 7.6165 0.708496C7.44645 0.708496 7.27979 0.756039 7.13533 0.845757C6.99087 0.935474 6.87438 1.06379 6.799 1.21622Z" fill="#06C167"/>
</g>
<g id="Group_2">
<path id="Icon awesome-star_2" d="M27.799 1.21622L25.94 4.98722L21.78 5.59422C21.6122 5.61961 21.4547 5.69133 21.3255 5.80132C21.1962 5.91131 21.1001 6.0552 21.0482 6.21679C20.9962 6.37839 20.9904 6.55128 21.0313 6.71601C21.0723 6.88074 21.1584 7.03077 21.28 7.14922L24.29 10.0822L23.578 14.2252C23.5495 14.3926 23.5683 14.5647 23.6323 14.722C23.6964 14.8792 23.8031 15.0155 23.9405 15.1153C24.0779 15.2151 24.2404 15.2746 24.4098 15.2869C24.5791 15.2993 24.7486 15.2641 24.899 15.1852L28.621 13.2292L32.343 15.1852C32.4934 15.2641 32.6629 15.2993 32.8322 15.2869C33.0016 15.2746 33.1641 15.2151 33.3015 15.1153C33.4389 15.0155 33.5456 14.8792 33.6097 14.722C33.6737 14.5647 33.6925 14.3926 33.664 14.2252L32.948 10.0812L35.958 7.14822C36.0796 7.02977 36.1657 6.87974 36.2067 6.71501C36.2476 6.55028 36.2418 6.37739 36.1898 6.21579C36.1379 6.0542 36.0418 5.91031 35.9125 5.80032C35.7833 5.69033 35.6258 5.61861 35.458 5.59322L31.298 4.98622L29.434 1.21622C29.3586 1.06379 29.2421 0.935474 29.0977 0.845757C28.9532 0.756039 28.7865 0.708496 28.6165 0.708496C28.4464 0.708496 28.2798 0.756039 28.1353 0.845757C27.9909 0.935474 27.8744 1.06379 27.799 1.21622Z" fill="#06C167"/>
</g>
<g id="Group_3">
<path id="Icon awesome-star_3" d="M48.799 1.21622L46.94 4.98722L42.78 5.59422C42.6122 5.61961 42.4547 5.69133 42.3255 5.80132C42.1962 5.91131 42.1001 6.0552 42.0482 6.21679C41.9962 6.37839 41.9904 6.55128 42.0313 6.71601C42.0723 6.88074 42.1584 7.03077 42.28 7.14922L45.29 10.0822L44.578 14.2252C44.5495 14.3926 44.5683 14.5647 44.6323 14.722C44.6964 14.8792 44.8031 15.0155 44.9405 15.1153C45.0779 15.2151 45.2404 15.2746 45.4098 15.2869C45.5791 15.2993 45.7486 15.2641 45.899 15.1852L49.621 13.2292L53.343 15.1852C53.4934 15.2641 53.6629 15.2993 53.8322 15.2869C54.0016 15.2746 54.1641 15.2151 54.3015 15.1153C54.4389 15.0155 54.5456 14.8792 54.6097 14.722C54.6737 14.5647 54.6925 14.3926 54.664 14.2252L53.948 10.0812L56.958 7.14822C57.0796 7.02977 57.1657 6.87974 57.2067 6.71501C57.2476 6.55028 57.2418 6.37739 57.1898 6.21579C57.1379 6.0542 57.0418 5.91031 56.9125 5.80032C56.7833 5.69033 56.6258 5.61861 56.458 5.59322L52.298 4.98622L50.434 1.21622C50.3586 1.06379 50.2421 0.935474 50.0977 0.845757C49.9532 0.756039 49.7865 0.708496 49.6165 0.708496C49.4464 0.708496 49.2798 0.756039 49.1353 0.845757C48.9909 0.935474 48.8744 1.06379 48.799 1.21622Z" fill="#06C167"/>
</g>
<g id="Group_4">
<path id="Icon awesome-star_4" d="M69.799 1.21622L67.94 4.98722L63.78 5.59422C63.6122 5.61961 63.4547 5.69133 63.3255 5.80132C63.1962 5.91131 63.1001 6.0552 63.0482 6.21679C62.9962 6.37839 62.9904 6.55128 63.0313 6.71601C63.0723 6.88074 63.1584 7.03077 63.28 7.14922L66.29 10.0822L65.578 14.2252C65.5495 14.3926 65.5683 14.5647 65.6323 14.722C65.6964 14.8792 65.8031 15.0155 65.9405 15.1153C66.0779 15.2151 66.2404 15.2746 66.4098 15.2869C66.5791 15.2993 66.7486 15.2641 66.899 15.1852L70.621 13.2292L74.343 15.1852C74.4934 15.2641 74.6629 15.2993 74.8322 15.2869C75.0016 15.2746 75.1641 15.2151 75.3015 15.1153C75.4389 15.0155 75.5456 14.8792 75.6097 14.722C75.6737 14.5647 75.6925 14.3926 75.664 14.2252L74.948 10.0812L77.958 7.14822C78.0796 7.02977 78.1657 6.87974 78.2067 6.71501C78.2476 6.55028 78.2418 6.37739 78.1898 6.21579C78.1379 6.0542 78.0418 5.91031 77.9125 5.80032C77.7833 5.69033 77.6258 5.61861 77.458 5.59322L73.298 4.98622L71.434 1.21622C71.3586 1.06379 71.2421 0.935474 71.0977 0.845757C70.9532 0.756039 70.7865 0.708496 70.6165 0.708496C70.4464 0.708496 70.2798 0.756039 70.1353 0.845757C69.9909 0.935474 69.8744 1.06379 69.799 1.21622Z" fill="#06C167"/>
</g>
<g id="Group_5">
<path id="Icon awesome-star_5" d="M90.799 1.21622L88.94 4.98722L84.78 5.59422C84.6122 5.61961 84.4547 5.69133 84.3255 5.80132C84.1962 5.91131 84.1001 6.0552 84.0482 6.21679C83.9962 6.37839 83.9904 6.55128 84.0313 6.71601C84.0723 6.88074 84.1584 7.03077 84.28 7.14922L87.29 10.0822L86.578 14.2252C86.5495 14.3926 86.5683 14.5647 86.6323 14.722C86.6964 14.8792 86.8031 15.0155 86.9405 15.1153C87.0779 15.2151 87.2404 15.2746 87.4098 15.2869C87.5791 15.2993 87.7486 15.2641 87.899 15.1852L91.621 13.2292L95.343 15.1852C95.4934 15.2641 95.6629 15.2993 95.8322 15.2869C96.0016 15.2746 96.1641 15.2151 96.3015 15.1153C96.4389 15.0155 96.5456 14.8792 96.6097 14.722C96.6737 14.5647 96.6925 14.3926 96.664 14.2252L95.948 10.0812L98.958 7.14822C99.0796 7.02977 99.1657 6.87974 99.2067 6.71501C99.2476 6.55028 99.2418 6.37739 99.1898 6.21579C99.1379 6.0542 99.0418 5.91031 98.9125 5.80032C98.7833 5.69033 98.6258 5.61861 98.458 5.59322L94.298 4.98622L92.434 1.21622C92.3586 1.06379 92.2421 0.935474 92.0977 0.845757C91.9532 0.756039 91.7865 0.708496 91.6165 0.708496C91.4464 0.708496 91.2798 0.756039 91.1353 0.845757C90.9909 0.935474 90.8744 1.06379 90.799 1.21622Z" fill="#06C167"/>
</g>
</g>
</svg>
